<svg aria-hidden="true" style="position: absolute; width: 0; height: 0; overflow: hidden;" version="1.1" xmlns="http://www.w3.org/2000/svg" xmlns:xlink="http://www.w3.org/1999/xlink">
<defs>
<symbol id="states" viewBox="0 0 32 32">
<path fill="#ed4c5c" style="fill: var(--color1, #ed4c5c)" d="M24 3.3c-2.35-1.45-5.050-2.3-8-2.3v2.3h8z"></path>
<path fill="#fff" style="fill: var(--color2, #fff)" d="M16 5.6h10.8c-0.85-0.85-1.8-1.65-2.8-2.3h-8v2.3z"></path>
<path fill="#ed4c5c" style="fill: var(--color1, #ed4c5c)" d="M16 7.9h12.65c-0.55-0.85-1.15-1.6-1.8-2.3h-10.85v2.3z"></path>
<path fill="#fff" style="fill: var(--color2, #fff)" d="M16 10.2h13.85c-0.35-0.8-0.75-1.6-1.2-2.3h-12.65v2.3z"></path>
<path fill="#ed4c5c" style="fill: var(--color1, #ed4c5c)" d="M16 12.5h14.6c-0.2-0.8-0.45-1.55-0.75-2.3h-13.85v2.3z"></path>
<path fill="#fff" style="fill: var(--color2, #fff)" d="M16 14.85h14.95c-0.050-0.8-0.2-1.55-0.35-2.3h-14.6v2.3z"></path>
<path fill="#ed4c5c" style="fill: var(--color1, #ed4c5c)" d="M30.95 14.85h-14.95v1.15h-15c0 0.4 0 0.75 0.050 1.15h29.9c0.050-0.4 0.050-0.75 0.050-1.15s0-0.8-0.050-1.15z"></path>
<path fill="#fff" style="fill: var(--color2, #fff)" d="M1.4 19.45h29.2c0.2-0.75 0.3-1.5 0.35-2.3h-29.9c0.050 0.75 0.15 1.55 0.35 2.3z"></path>
<path fill="#ed4c5c" style="fill: var(--color1, #ed4c5c)" d="M2.15 21.75h27.7c0.3-0.75 0.55-1.5 0.75-2.3h-29.2c0.2 0.8 0.45 1.55 0.75 2.3z"></path>
<path fill="#fff" style="fill: var(--color2, #fff)" d="M3.35 24.050h25.3c0.45-0.75 0.85-1.5 1.2-2.3h-27.7c0.35 0.8 0.75 1.55 1.2 2.3z"></path>
<path fill="#ed4c5c" style="fill: var(--color1, #ed4c5c)" d="M5.15 26.35h21.7c0.65-0.7 1.3-1.5 1.8-2.3h-25.3c0.5 0.85 1.15 1.6 1.8 2.3z"></path>
<path fill="#fff" style="fill: var(--color2, #fff)" d="M7.95 28.65h16.1c1.050-0.65 1.95-1.45 2.8-2.3h-21.7c0.85 0.9 1.8 1.65 2.8 2.3z"></path>
<path fill="#ed4c5c" style="fill: var(--color1, #ed4c5c)" d="M16 31c2.95 0 5.7-0.85 8.050-2.35h-16.1c2.35 1.5 5.1 2.35 8.050 2.35z"></path>
<path fill="#428bc1" style="fill: var(--color3, #428bc1)" d="M8 3.3c-1.050 0.65-2 1.45-2.85 2.3-0.7 0.7-1.3 1.5-1.8 2.3-0.45 0.75-0.9 1.5-1.2 2.3-0.3 0.75-0.55 1.5-0.75 2.3-0.2 0.75-0.3 1.5-0.35 2.3-0.050 0.4-0.050 0.8-0.050 1.2h15v-15c-2.95 0-5.65 0.85-8 2.3z"></path>
<path fill="#fff" style="fill: var(--color2, #fff)" d="M12.5 1.5l0.25 0.75h0.75l-0.6 0.5 0.2 0.75-0.6-0.45-0.6 0.45 0.2-0.75-0.6-0.5h0.75z"></path>
<path fill="#fff" style="fill: var(--color2, #fff)" d="M14.5 4.5l0.25 0.75h0.75l-0.6 0.5 0.2 0.75-0.6-0.45-0.6 0.45 0.2-0.75-0.6-0.5h0.75z"></path>
<path fill="#fff" style="fill: var(--color2, #fff)" d="M10.5 4.5l0.25 0.75h0.75l-0.6 0.5 0.2 0.75-0.6-0.45-0.6 0.45 0.2-0.75-0.6-0.5h0.75z"></path>
<path fill="#fff" style="fill: var(--color2, #fff)" d="M12.5 7.5l0.25 0.75h0.75l-0.6 0.5 0.2 0.75-0.6-0.45-0.6 0.45 0.2-0.75-0.6-0.5h0.75z"></path>
<path fill="#fff" style="fill: var(--color2, #fff)" d="M8.5 7.5l0.25 0.75h0.75l-0.6 0.5 0.2 0.75-0.6-0.45-0.6 0.45 0.2-0.75-0.6-0.5h0.75z"></path>
<path fill="#fff" style="fill: var(--color2, #fff)" d="M4.5 7.5l0.25 0.75h0.75l-0.6 0.5 0.2 0.75-0.6-0.45-0.6 0.45 0.2-0.75-0.6-0.5h0.75z"></path>
<path fill="#fff" style="fill: var(--color2, #fff)" d="M14.5 10.5l0.25 0.75h0.75l-0.6 0.5 0.2 0.75-0.6-0.45-0.6 0.45 0.2-0.75-0.6-0.5h0.75z"></path>
<path fill="#fff" style="fill: var(--color2, #fff)" d="M10.5 10.5l0.25 0.75h0.75l-0.6 0.5 0.2 0.75-0.6-0.45-0.6 0.45 0.2-0.75-0.6-0.5h0.75z"></path>
<path fill="#fff" style="fill: var(--color2, #fff)" d="M6.5 10.5l0.25 0.75h0.75l-0.6 0.5 0.2 0.75-0.6-0.45-0.6 0.45 0.2-0.75-0.6-0.5h0.75z"></path>
<path fill="#fff" style="fill: var(--color2, #fff)" d="M12.5 13.5l0.25 0.75h0.75l-0.6 0.5 0.2 0.75-0.6-0.45-0.6 0.45 0.2-0.75-0.6-0.5h0.75z"></path>
<path fill="#fff" style="fill: var(--color2, #fff)" d="M8.5 13.5l0.25 0.75h0.75l-0.6 0.5 0.2 0.75-0.6-0.45-0.6 0.45 0.2-0.75-0.6-0.5h0.75z"></path>
<path fill="#fff" style="fill: var(--color2, #fff)" d="M4.5 13.5l0.25 0.75h0.75l-0.6 0.5 0.2 0.75-0.6-0.45-0.6 0.45 0.2-0.75-0.6-0.5h0.75z"></path>
<path fill="#fff" style="fill: var(--color2, #fff)" d="M5.9 6.5l0.6-0.45 0.6 0.45-0.25-0.75 0.6-0.5h-0.75l-0.2-0.75-0.25 0.75h-0.7l0.6 0.45-0.25 0.8z"></path>
<path fill="#fff" style="fill: var(--color2, #fff)" d="M1.9 12.5l0.6-0.45 0.6 0.45-0.25-0.75 0.6-0.5h-0.7l-0.25-0.75-0.25 0.75h-0.5c0 0.050-0.050 0.1-0.050 0.15l0.4 0.3-0.2 0.8z"></path>
</symbol>
<symbol id="ukraine" viewBox="0 0 32 32">
<path fill="#ffe62e" style="fill: var(--color4, #ffe62e)" d="M16 31c8.3 0 15-6.7 15-15h-30c0 8.3 6.7 15 15 15z"></path>
<path fill="#428bc1" style="fill: var(--color3, #428bc1)" d="M16 1c-8.3 0-15 6.7-15 15h30c0-8.3-6.7-15-15-15z"></path>
</symbol>
<symbol id="poland" viewBox="0 0 32 32">
<path fill="#f9f9f9" style="fill: var(--color5, #f9f9f9)" d="M16 1c8.3 0 15 6.7 15 15h-30c0-8.3 6.7-15 15-15z"></path>
<path fill="#ed4c5c" style="fill: var(--color1, #ed4c5c)" d="M16 31c-8.3 0-15-6.7-15-15h30c0 8.3-6.7 15-15 15z"></path>
</symbol>
</defs>
</svg>
